<svg xmlns="http://www.w3.org/2000/svg" id="face" width="482.1" height="1073.9" version="1.1" viewBox="0 0 127.5 284.1" xml:space="preserve">
    <style>
    path {
        fill: #7286D3;
        stroke: none;
    }
    </style>
      
    <g stroke-linecap="round" stroke-width=".048994"><path d="m24.24 36.177 5.9586-9.3635s4.0488-4.7538 6.3842-6.8098c2.1354-1.8799 4.2385-4.0398 6.9162-5.0009 2.6425-0.94852 5.5997-0.4433 8.4058-0.53202 2.4106-0.07621 4.8374 0.25764 7.2354 0 3.3201-0.35672 6.4558-1.9293 9.7891-2.1281 2.9875-0.17813 5.9918 0.32468 8.9379 0.85122 4.9119 0.8779 9.9452 1.7289 14.471 3.8305 1.5707 0.72938 3.7997 1.3088 4.2561 2.9793 0.45182 1.6536-1.4766 3.0961-2.1281 4.6817-1.0916 2.6572-2.8832 5.2156-2.9793 8.0866-0.08413 2.5125 1.261 4.8757 2.1281 7.2354 1.4458 3.9346 5.1073 11.492 5.1073 11.492s1.8081 5.4636 2.9793 8.0866c1.1126 2.4918 2.9866 4.6402 3.8305 7.2354 0.62045 1.908 0.95458 3.9549 0.85122 5.9586-0.15068 2.9209-1.8288 5.6029-2.1281 8.5122-0.3632 3.531 0.62547 7.0963 0.42561 10.64-35.283 27.099-34.509 27.082-62.565 21.281-0.88467-0.35084-1.6409-1.0073-2.5537-1.2768-1.2321-0.36385-2.5822-0.72934-3.8305-0.42562-1.9881 0.48372-3.0652 3.2778-5.1073 3.4049-1.2665 0.0789-2.1362-1.7251-3.4049-1.7024-1.7774 0.0317-3.3274 1.4023-4.6817 2.5537-1.2324 1.0477-1.8433 2.6789-2.9793 3.8305-0.63793 0.64673-1.2304 1.8418-2.1281 1.7024-0.50547-0.0785-0.78333-0.76984-0.85122-1.2768-0.17864-1.334 0.85122-2.5537 1.2768-3.8305l0.85122-2.5537-1.7024-2.5537s-1.4909-0.59975-1.7024-1.2768c-0.4013-1.2847 1.1716-2.4887 1.2768-3.8305 0.0675-0.86032-0.35444-1.6936-0.42561-2.5537-0.09361-1.1311-0.22466-2.2924 0-3.4049 0.57894-2.8669 3.4049-8.0866 3.4049-8.0866l3.8305-7.661 1.2768-3.4049 0.85122-5.1074-0.42561-2.9793-2.5537-1.7024-3.8305-0.42561-2.5537-4.6817v-5.533l1.7024-4.6817 1.7024-6.8098 2.5537-6.3842z"/><path d="m23.756 131.67c-0.121-0.89612 0.19678-1.8737-0.15048-2.7086-0.25915-0.62308-1.3645-0.83003-1.3543-1.5048 0.02424-1.5963 1.8627-2.7882 3.3105-3.461 0.72922-0.33887 1.6555-0.43487 2.4076-0.15048 0.72986 0.27596 0.87502 1.6447 1.6552 1.6552 1.3127 0.0177 1.6395-2.2226 2.8591-2.7086 0.69894-0.27851 1.5062-0.0467 2.2572 0 0.80722 0.0503 2.4076 0.30096 2.4076 0.30096l3.3105 1.3543 3.3105 0.75238 3.16 0.45143s2.6853 1.0712 4.0629 1.5048c1.1373 0.35797 2.3929 0.37294 3.461 0.90286 0.79999 0.39693 1.8752 0.7927 2.1067 1.6552 0.21002 0.78265-0.34896 1.6657-0.90286 2.2572-0.87411 0.93342-2.3402 1.0395-3.461 1.6552-1.2442 0.68352-3.6114 2.2572-3.6114 2.2572l-3.3105 2.1067-4.2133 0.60191-5.5676-0.30095s-2.3076 0.024-3.461 0c-1.2046-0.0251-2.4198 0.0277-3.6114-0.15048-1.1792-0.1763-2.6359-0.0422-3.461-0.90286-1.314-1.3707-0.94973-3.686-1.2038-5.5676z"/><path d="m104.56 91.64c-24.897 6.7819-35.313 8.505-40.93 37.77h-3.461l0.30095-3.16-2.4076-1.3543-0.15048-3.0095-3.0095-1.9562-2.7086 0.45143-3.6114 1.5048-3.7619-1.2038-0.90286-5.1162-3.0095-1.2038 0.90286-1.6552z"/><path d="m63.184 127.68 6.1714 0.63842 4.0433-0.21281 0.42561-1.2768h2.9793l4.0433 0.42561 3.1921-0.21281 3.1921-1.9152-0.63842-2.3409v-2.3409l2.3409 0.85122 2.7665 0.85123 1.2768-3.8305 3.1921 0.42561 4.8945-1.7024 2.9793-0.63842 1.064-3.6177-0.42561-2.9793-1.9152-2.3409-0.85123-1.4896 0.85123-2.5537 1.4896-0.21281 0.63842-5.3202 0.42561-3.4049-1.064-4.0433-41.71 21.281z"/></g></svg>