<svg xmlns="http://www.w3.org/2000/svg" id="clothing-1" width="482.1" height="1073.9" version="1.1" viewBox="0 0 127.5 284.1" xml:space="preserve">
    <style>
    path {
        fill: #2E4F4F;
        stroke: none;
    }
    </style>
      
    <g><path d="m30.199 284.1 0.42561-9.7891 1.9153-6.8098 1.7024-9.7891 4.2561-3.8305 1.4896-9.5763-0.85122-4.6817-1.4896-5.7458 1.4896-7.8738-0.63842-1.7024-1.064-2.9793 1.7025-5.9586 1.9153-3.1921 3.4049-6.8098-0.63842-2.9793 1.7024-3.4049-1.9153-6.1714 0.21281-3.4049-0.21281-3.1921 3.1921-5.9586-0.42561-5.1074 2.7665 0.21281 1.9153-3.6177 8.0866-1.9152 4.0433 3.4049 3.6177 0.2128 3.4049-4.6817 2.9793-0.21281 4.0433-2.7665 2.5537-3.1921 2.9793-0.42562 2.7665-3.4049 5.533-0.2128 1.9153-1.2768 2.1281-2.5537 3.8305-3.6177 2.7665-2.1281 4.6817-2.3409 1.9153-3.1921 3.1921-5.533 1.4896-1.4896 1.064-5.3202 1.7024-4.2561 0.42562-5.1074 1.064-3.8305 2.1281-9.1507 1.9153-2.3409 2.9793 2.3409 2.9793-2.7665 3.6177-1.064-1.064 28.09-3.1921 0.42561-2.1281 2.1281-0.42562 4.6817-2.3409 2.5537-4.6817 2.9793-4.2561 7.661-0.63842 3.8305-2.7665 2.9793-3.4049 1.064-4.6817-0.63842-4.2561 3.4049-8.0866 7.2354-6.8098 7.2354-4.0433 6.1714-4.6817 6.8098-5.1074 5.9586-3.8305 5.9586-4.4689 1.9153-1.9153 2.5537-1.2768 7.4482-4.4689 8.0866-2.9793 4.0433-1.9153 6.8098-3.4049 4.4689-1.7024 3.4049-1.4896 4.4689-1.2768 5.7458-4.4689 5.533-0.42561 5.3202-1.7024 8.2994-1.064 3.8305z" stroke-linecap="round" stroke-width=".048994"/></g></svg>