<svg xmlns="http://www.w3.org/2000/svg" id="glasses" width="482.1" height="1073.9" version="1.1" viewBox="0 0 127.5 284.1" xml:space="preserve">
    <style>
    path {
       fill: #ECB390;
        stroke: none;
    }
    </style>
      
    <g stroke-linecap="round" stroke-width=".048994"><path d="m64.461 54.904 5.9586 2.1281 2.3409 7.661 1.4896 2.9793 1.4896 0.21281 0.85123 4.8945 0.21281 3.8305 0.21281 4.2561-2.1281 4.8945-3.6177 6.3842-3.8305 3.4049-6.3842 2.7665h-10.428l-7.8738-4.6817-6.8098-7.4482-3.6177-8.2994-0.21281-3.8305 1.4896-3.6177 1.2768-5.9586 4.8945-4.2561 5.3202-2.5537 9.3635-2.7665z"/><path d="m19.346 91.932c-1.1589 2.504-2.5537 7.8738-2.5537 7.8738l-0.85122 4.4689v3.1921l-1.064 2.9793-3.6177 1.7024-4.0433-2.7665-2.9793-5.533-2.1281-5.9586-1.2768-3.8305 1.064-6.8098 1.064-5.533 3.6177-3.6177 3.8305-2.9793 4.0433-2.7665 2.7665 0.21281 2.7665-0.21281 1.4896-0.42561 2.3409 2.3409 2.3409-0.85122 0.21281 2.3409-1.4896 4.6817v1.4896s-0.6252 1.8813-1.064 2.7665c-1.2591 2.5398-3.2783 4.6628-4.4689 7.2354z"/></g></svg>